<svg width="100" height="100" viewBox="0 0 17 17" fill="none" xmlns="http://www.w3.org/2000/svg">
<path d="M11.3333 12.75C11.3333 13.3136 11.1094 13.8541 10.7109 14.2526C10.3124 14.6511 9.7719 14.875 9.20831 14.875H4.95831C4.39473 14.875 3.85423 14.6511 3.45571 14.2526C3.0572 13.8541 2.83331 13.3136 2.83331 12.75V6.37502H12.0416C12.6052 6.37502 13.1457 6.5989 13.5442 6.99742C13.9428 7.39593 14.1666 7.93643 14.1666 8.50002V10.625C14.1666 11.1886 13.9428 11.7291 13.5442 12.1276C13.1457 12.5261 12.6052 12.75 12.0416 12.75H11.3333ZM2.8581 4.95835C2.94619 4.34802 3.25858 3.79243 3.73427 3.40003C4.20997 3.00763 4.81483 2.8066 5.43077 2.83618C5.87515 2.47594 6.40828 2.24192 6.97425 2.15868C7.54022 2.07544 8.11816 2.14605 8.64744 2.36309C9.17672 2.58014 9.63784 2.93562 9.98242 3.39225C10.327 3.84888 10.5423 4.38983 10.6059 4.95835H2.8581ZM5.66665 7.79168C5.47878 7.79168 5.29862 7.86631 5.16578 7.99915C5.03294 8.13199 4.95831 8.31216 4.95831 8.50002V11.3334C4.95831 11.5212 5.03294 11.7014 5.16578 11.8342C5.29862 11.9671 5.47878 12.0417 5.66665 12.0417C5.85451 12.0417 6.03467 11.9671 6.16751 11.8342C6.30035 11.7014 6.37498 11.5212 6.37498 11.3334V8.50002C6.37498 8.31216 6.30035 8.13199 6.16751 7.99915C6.03467 7.86631 5.85451 7.79168 5.66665 7.79168ZM8.49998 7.79168C8.31212 7.79168 8.13195 7.86631 7.99911 7.99915C7.86627 8.13199 7.79165 8.31216 7.79165 8.50002V11.3334C7.79165 11.5212 7.86627 11.7014 7.99911 11.8342C8.13195 11.9671 8.31212 12.0417 8.49998 12.0417C8.68784 12.0417 8.86801 11.9671 9.00085 11.8342C9.13368 11.7014 9.20831 11.5212 9.20831 11.3334V8.50002C9.20831 8.31216 9.13368 8.13199 9.00085 7.99915C8.86801 7.86631 8.68784 7.79168 8.49998 7.79168ZM11.3333 7.79168V11.3334H12.0416C12.2295 11.3334 12.4097 11.2587 12.5425 11.1259C12.6754 10.993 12.75 10.8129 12.75 10.625V8.50002C12.75 8.31216 12.6754 8.13199 12.5425 7.99915C12.4097 7.86631 12.2295 7.79168 12.0416 7.79168H11.3333Z" fill="black"/>
</svg>
