<svg width="100" height="100" viewBox="0 0 17 16" fill="none" xmlns="http://www.w3.org/2000/svg">
<path d="M8.57553 0.853271C7.16909 0.853271 5.79423 1.27033 4.62481 2.05171C3.45539 2.83309 2.54394 3.94369 2.00572 5.24308C1.4675 6.54246 1.32667 7.97227 1.60106 9.35169C1.87544 10.7311 2.55271 11.9982 3.54722 12.9927C4.54172 13.9872 5.8088 14.6645 7.18822 14.9389C8.56764 15.2132 9.99745 15.0724 11.2968 14.5342C12.5962 13.996 13.7068 13.0845 14.4882 11.9151C15.2696 10.7457 15.6866 9.37083 15.6866 7.96438C15.6866 6.0784 14.9374 4.26966 13.6038 2.93607C12.2703 1.60248 10.4615 0.853271 8.57553 0.853271V0.853271ZM12.1578 7.99994H12.8422C12.8328 9.12577 12.3793 10.2024 11.5803 10.9955C10.7813 11.7887 9.7014 12.2344 8.57553 12.2355H8.49997V11.5555H8.57553C9.52064 11.5544 10.4271 11.1802 11.0979 10.5144C11.7687 9.84865 12.1496 8.94501 12.1578 7.99994V7.99994ZM3.18886 7.99994H2.47775V7.96438C2.4788 6.36093 3.11138 4.82241 4.23852 3.68196C5.36566 2.54151 6.89664 1.89092 8.49997 1.87105V2.58216C7.08561 2.60315 5.73616 3.17918 4.74261 4.18602C3.74907 5.19287 3.19104 6.54986 3.18886 7.96438V7.99994ZM4.98886 7.99994H4.30442V7.96438C4.30541 6.84535 4.74553 5.77141 5.53013 4.97351C6.31472 4.17562 7.38112 3.71751 8.49997 3.69772V4.38216C7.56266 4.40191 6.67033 4.78788 6.01408 5.45743C5.35782 6.12697 4.98982 7.02686 4.98886 7.96438V7.99994ZM6.90886 7.96438C6.90886 7.63475 7.00661 7.31251 7.18975 7.03843C7.37288 6.76435 7.63318 6.55073 7.93773 6.42458C8.24227 6.29844 8.57738 6.26543 8.90068 6.32974C9.22398 6.39405 9.52095 6.55278 9.75404 6.78587C9.98713 7.01896 10.1459 7.31593 10.2102 7.63923C10.2745 7.96253 10.2415 8.29764 10.1153 8.60219C9.98918 8.90673 9.77556 9.16703 9.50148 9.35017C9.2274 9.5333 8.90517 9.63105 8.57553 9.63105C8.1335 9.63105 7.70958 9.45545 7.39702 9.14289C7.08446 8.83033 6.90886 8.40641 6.90886 7.96438V7.96438ZM8.57553 14.0577H8.49997V13.3333H8.57553C9.99385 13.331 11.3541 12.7699 12.3616 11.7716C13.3691 10.7733 13.9426 9.41818 13.9578 7.99994H14.6689C14.6571 9.6091 14.0103 11.1485 12.8691 12.283C11.7279 13.4176 10.1847 14.0554 8.57553 14.0577Z" fill="black"/>
</svg>
