<svg width="100" height="100" viewBox="0 0 15 15" fill="none" xmlns="http://www.w3.org/2000/svg">
<path d="M11.5625 1.875H3.75C3.0625 1.875 2.5 2.4375 2.5 3.125V6.69375C2.5 9.0875 4.34375 11.1812 6.7375 11.25C9.2125 11.325 11.25 9.3375 11.25 6.875V6.25H11.5625C12.7688 6.25 13.75 5.26875 13.75 4.0625C13.75 2.85625 12.7688 1.875 11.5625 1.875ZM10 3.125V5H3.75V3.125H10ZM11.5625 5H11.25V3.125H11.5625C12.0813 3.125 12.5 3.54375 12.5 4.0625C12.5 4.58125 12.0813 5 11.5625 5ZM2.5 11.875H12.5V13.125H2.5V11.875Z" fill="black"/>
</svg>
