<svg width="95" height="95" viewBox="0 0 75 75" fill="none" xmlns="http://www.w3.org/2000/svg">
<path d="M60.3125 0.375H8.75C4.2125 0.375 0.5 4.0875 0.5 8.625V32.1788C0.5 47.9775 12.6687 61.7963 28.4675 62.25C44.8025 62.745 58.25 49.6275 58.25 33.375V29.25H60.3125C68.2737 29.25 74.75 22.7737 74.75 14.8125C74.75 6.85125 68.2737 0.375 60.3125 0.375ZM50 8.625V21H8.75V8.625H50ZM60.3125 21H58.25V8.625H60.3125C63.7362 8.625 66.5 11.3888 66.5 14.8125C66.5 18.2362 63.7362 21 60.3125 21ZM0.5 66.375H66.5V74.625H0.5V66.375Z" fill="#2A2A2A"/>
</svg>