<svg width="100" height="100" viewBox="0 0 17 17" fill="none" xmlns="http://www.w3.org/2000/svg">
<path d="M10.9792 1.41675C11.3446 1.41671 11.7055 1.49744 12.036 1.65317C12.3666 1.80889 12.6586 2.03575 12.8912 2.31753C13.1239 2.5993 13.2913 2.92901 13.3817 3.28306C13.472 3.63712 13.4829 4.00676 13.4137 4.36554L13.4031 4.41229C14.0193 4.61785 14.5581 5.00672 14.9473 5.52685C15.3365 6.04698 15.5575 6.67357 15.5809 7.32277C15.6042 7.97197 15.4287 8.61282 15.0779 9.15955C14.7271 9.70629 14.2176 10.1328 13.6177 10.3821L12.8485 14.9913C12.821 15.1566 12.7357 15.3069 12.6078 15.4154C12.4799 15.5238 12.3177 15.5833 12.1501 15.5834H4.84998C4.68231 15.5833 4.52011 15.5238 4.39222 15.4154C4.26434 15.3069 4.17906 15.1566 4.15156 14.9913L3.42269 10.6208C2.93247 10.593 2.467 10.3963 2.10542 10.0641C1.74383 9.73196 1.50843 9.28481 1.43924 8.7987C1.37005 8.31259 1.47133 7.81752 1.72586 7.39765C1.9804 6.97777 2.37249 6.65899 2.83548 6.4955L2.83335 6.37508C2.83321 5.65786 3.01458 4.95227 3.36057 4.32403C3.70656 3.69578 4.20592 3.16531 4.81213 2.78203C5.41835 2.39874 6.1117 2.17511 6.82762 2.13195C7.54354 2.0888 8.25874 2.22752 8.9066 2.53521C9.13206 2.19137 9.43958 1.90908 9.80142 1.71382C10.1633 1.51855 10.568 1.41646 10.9792 1.41675ZM6.37502 10.6251H4.85919L5.44994 14.1667H6.37502V10.6251ZM9.20835 10.6251H7.79169V14.1667H9.20835V10.6251ZM12.1401 10.6251H10.625V14.1667H11.5494L12.1401 10.6251ZM7.08335 3.54175C5.5661 3.54175 4.32723 4.73458 4.25356 6.21004L4.25002 6.34958L4.25214 6.47C4.25715 6.74814 4.18016 7.02161 4.03076 7.25628C3.88137 7.49095 3.66619 7.67645 3.41206 7.78962L3.30581 7.83142C3.14853 7.88742 3.01605 7.99713 2.93172 8.14122C2.84739 8.28531 2.8166 8.45453 2.84479 8.61909C2.87298 8.78365 2.95833 8.93298 3.08581 9.04079C3.2133 9.14859 3.37473 9.20795 3.54169 9.20842H12.3959C12.6577 9.20841 12.9162 9.15036 13.1529 9.03842C13.3896 8.92649 13.5985 8.76346 13.7646 8.56109C13.9307 8.35871 14.0499 8.12202 14.1136 7.86805C14.1772 7.61409 14.1837 7.34917 14.1327 7.09238C14.0817 6.83558 13.9743 6.5933 13.8184 6.38297C13.6625 6.17265 13.4618 5.99952 13.231 5.87604C13.0001 5.75257 12.7447 5.68182 12.4832 5.66891C12.2217 5.65599 11.9606 5.70122 11.7187 5.80133L11.5947 5.85871C11.2679 6.02713 10.8884 6.06188 10.5364 5.9556C10.1844 5.84933 9.88747 5.61036 9.70844 5.28921L9.65885 5.19217C9.43248 4.69947 9.06949 4.28207 8.61296 3.98953C8.15644 3.69698 7.62557 3.54157 7.08335 3.54175ZM10.9792 2.83342C10.7956 2.83338 10.6151 2.88093 10.4553 2.97142C10.2955 3.06192 10.1619 3.19228 10.0676 3.34979C10.4333 3.70989 10.7309 4.13322 10.9459 4.59929C11.2665 4.43456 11.6129 4.32603 11.9701 4.27842C12.0322 4.11747 12.0542 3.94383 12.0342 3.77249C12.0142 3.60115 11.9527 3.43727 11.8551 3.295C11.7576 3.15273 11.6268 3.03636 11.4742 2.95594C11.3216 2.87552 11.1517 2.83346 10.9792 2.83342Z" fill="black"/>
</svg>
