<svg width="95" height="95" viewBox="0 0 87 87" fill="none" xmlns="http://www.w3.org/2000/svg">
<path d="M58.521 0.583256C60.7349 0.583022 62.9214 1.07216 64.9242 2.01566C66.9269 2.95916 68.6964 4.3337 70.1058 6.04091C71.5153 7.74811 72.53 9.74577 73.0773 11.8909C73.6245 14.0361 73.6909 16.2757 73.2715 18.4495L73.2071 18.7327C76.9408 19.9782 80.2051 22.3342 82.5631 25.4856C84.9211 28.637 86.2605 32.4334 86.4019 36.3668C86.5433 40.3002 85.48 44.183 83.3544 47.4955C81.2287 50.8081 78.1421 53.3925 74.5075 54.9029L69.8467 82.8288C69.6801 83.8309 69.1635 84.7414 68.3886 85.3984C67.6138 86.0553 66.631 86.4161 65.6152 86.4166H21.3852C20.3694 86.4161 19.3866 86.0553 18.6118 85.3984C17.8369 84.7414 17.3203 83.8309 17.1537 82.8288L12.7375 56.3492C9.76738 56.1807 6.94723 54.9889 4.75643 52.9762C2.56564 50.9636 1.13941 48.2544 0.720182 45.3092C0.300951 42.364 0.914587 39.3644 2.45679 36.8205C3.99898 34.2765 6.37457 32.3451 9.17974 31.3545L9.16687 30.6249C9.16602 26.2794 10.2649 22.0044 12.3612 18.1979C14.4575 14.3915 17.483 11.1775 21.1559 8.85525C24.8289 6.53299 29.0298 5.17803 33.3674 4.91655C37.7051 4.65507 42.0383 5.49558 45.9636 7.3598C47.3296 5.27655 49.1929 3.56622 51.3852 2.38315C53.5775 1.20008 56.0299 0.581508 58.521 0.583256V0.583256ZM30.6252 56.3749H21.441L25.0203 77.8333H30.6252V56.3749ZM47.7919 56.3749H39.2085V77.8333H47.7919V56.3749ZM65.5551 56.3749H56.3752V77.8333H61.9758L65.5551 56.3749ZM34.9169 13.4583C25.7241 13.4583 18.218 20.6854 17.7717 29.625L17.7502 30.4704L17.7631 31.2C17.7934 32.8852 17.3269 34.5421 16.4218 35.9639C15.5166 37.3858 14.2129 38.5097 12.6732 39.1954L12.0294 39.4486C11.0765 39.7879 10.2738 40.4526 9.76286 41.3256C9.25189 42.1986 9.06537 43.2239 9.23616 44.221C9.40695 45.218 9.92408 46.1228 10.6965 46.776C11.4689 47.4291 12.447 47.7888 13.4585 47.7916H67.1044C68.6907 47.7916 70.2572 47.4398 71.6913 46.7616C73.1253 46.0834 74.3911 45.0957 75.3976 43.8695C76.404 42.6434 77.126 41.2093 77.5116 39.6706C77.8972 38.1319 77.9369 36.5268 77.6276 34.9709C77.3184 33.415 76.668 31.9471 75.7233 30.6727C74.7786 29.3984 73.563 28.3494 72.1642 27.6013C70.7654 26.8532 69.2181 26.4246 67.6337 26.3463C66.0493 26.2681 64.4673 26.5421 63.0015 27.1487L62.2505 27.4963C60.2702 28.5167 57.9707 28.7273 55.838 28.0834C53.7053 27.4395 51.9065 25.9916 50.8218 24.0458L50.5214 23.4578C49.1498 20.4727 46.9505 17.9438 44.1845 16.1713C41.4185 14.3988 38.202 13.4572 34.9169 13.4583ZM58.521 9.16659C57.4085 9.16636 56.3149 9.45445 55.3469 10.0028C54.3789 10.5511 53.5695 11.3409 52.9977 12.2952C55.2137 14.477 57.0167 17.0418 58.3193 19.8657C60.2615 18.8677 62.3606 18.2101 64.5251 17.9216C64.9013 16.9465 65.0345 15.8944 64.9131 14.8563C64.7917 13.8182 64.4193 12.8252 63.8282 11.9632C63.2371 11.1013 62.445 10.3962 61.5203 9.90894C60.5956 9.42168 59.5662 9.16689 58.521 9.16659V9.16659Z" fill="#2A2A2A"/>
</svg>  