<svg width="100" height="100" viewBox="0 0 17 17" fill="none" xmlns="http://www.w3.org/2000/svg">
<path d="M5.66669 1.41675H11.3334C11.8969 1.41675 12.4374 1.64063 12.836 2.03915C13.2345 2.43766 13.4584 2.97816 13.4584 3.54175V13.4584C13.4584 14.022 13.2345 14.5625 12.836 14.961C12.4374 15.3595 11.8969 15.5834 11.3334 15.5834H5.66669C5.1031 15.5834 4.5626 15.3595 4.16409 14.961C3.76557 14.5625 3.54169 14.022 3.54169 13.4584V3.54175C3.54169 2.97816 3.76557 2.43766 4.16409 2.03915C4.5626 1.64063 5.1031 1.41675 5.66669 1.41675ZM8.50002 13.4584C9.25147 13.4584 9.97214 13.1599 10.5035 12.6286C11.0348 12.0972 11.3334 11.3765 11.3334 10.6251C11.3334 9.87364 11.0348 9.15297 10.5035 8.62161C9.97214 8.09026 9.25147 7.79175 8.50002 7.79175C7.74857 7.79175 7.02791 8.09026 6.49655 8.62161C5.9652 9.15297 5.66669 9.87364 5.66669 10.6251C5.66669 11.3765 5.9652 12.0972 6.49655 12.6286C7.02791 13.1599 7.74857 13.4584 8.50002 13.4584ZM8.50002 6.37508C8.68788 6.37508 8.86805 6.30045 9.00089 6.16762C9.13373 6.03478 9.20836 5.85461 9.20836 5.66675C9.20836 5.47889 9.13373 5.29872 9.00089 5.16588C8.86805 5.03304 8.68788 4.95842 8.50002 4.95842C8.31216 4.95842 8.13199 5.03304 7.99915 5.16588C7.86632 5.29872 7.79169 5.47889 7.79169 5.66675C7.79169 5.85461 7.86632 6.03478 7.99915 6.16762C8.13199 6.30045 8.31216 6.37508 8.50002 6.37508ZM8.50002 12.0417C8.1243 12.0417 7.76396 11.8925 7.49829 11.6268C7.23261 11.3611 7.08335 11.0008 7.08335 10.6251C7.08335 10.2494 7.23261 9.88902 7.49829 9.62335C7.76396 9.35767 8.1243 9.20842 8.50002 9.20842C8.87575 9.20842 9.23608 9.35767 9.50176 9.62335C9.76743 9.88902 9.91669 10.2494 9.91669 10.6251C9.91669 11.0008 9.76743 11.3611 9.50176 11.6268C9.23608 11.8925 8.87575 12.0417 8.50002 12.0417Z" fill="black"/>
</svg>
