<svg width="27" height="35" viewBox="0 0 19 27" fill="none" xmlns="http://www.w3.org/2000/svg">
<path d="M19 9.71053C19 15.0735 11.8171 27 9.5 27C7.18293 27 0 15.0735 0 9.71053C0 4.34755 4.25329 0 9.5 0C14.7467 0 19 4.34755 19 9.71053Z" fill="#D7D7D7"/>
<path d="M13.3333 13.75C13.3333 14.3136 13.1094 14.8541 12.7109 15.2526C12.3124 15.6511 11.7719 15.875 11.2083 15.875H6.95831C6.39473 15.875 5.85423 15.6511 5.45571 15.2526C5.0572 14.8541 4.83331 14.3136 4.83331 13.75V7.37502H14.0416C14.6052 7.37502 15.1457 7.5989 15.5442 7.99742C15.9428 8.39593 16.1666 8.93643 16.1666 9.50002V11.625C16.1666 12.1886 15.9428 12.7291 15.5442 13.1276C15.1457 13.5261 14.6052 13.75 14.0416 13.75H13.3333ZM4.8581 5.95835C4.94619 5.34802 5.25858 4.79243 5.73427 4.40003C6.20997 4.00763 6.81483 3.8066 7.43077 3.83618C7.87515 3.47594 8.40828 3.24192 8.97425 3.15868C9.54022 3.07544 10.1182 3.14605 10.6474 3.36309C11.1767 3.58014 11.6378 3.93562 11.9824 4.39225C12.327 4.84888 12.5423 5.38983 12.6059 5.95835H4.8581ZM7.66665 8.79168C7.47878 8.79168 7.29862 8.86631 7.16578 8.99915C7.03294 9.13199 6.95831 9.31216 6.95831 9.50002V12.3334C6.95831 12.5212 7.03294 12.7014 7.16578 12.8342C7.29862 12.9671 7.47878 13.0417 7.66665 13.0417C7.85451 13.0417 8.03467 12.9671 8.16751 12.8342C8.30035 12.7014 8.37498 12.5212 8.37498 12.3334V9.50002C8.37498 9.31216 8.30035 9.13199 8.16751 8.99915C8.03467 8.86631 7.85451 8.79168 7.66665 8.79168ZM10.5 8.79168C10.3121 8.79168 10.132 8.86631 9.99911 8.99915C9.86627 9.13199 9.79165 9.31216 9.79165 9.50002V12.3334C9.79165 12.5212 9.86627 12.7014 9.99911 12.8342C10.132 12.9671 10.3121 13.0417 10.5 13.0417C10.6878 13.0417 10.868 12.9671 11.0008 12.8342C11.1337 12.7014 11.2083 12.5212 11.2083 12.3334V9.50002C11.2083 9.31216 11.1337 9.13199 11.0008 8.99915C10.868 8.86631 10.6878 8.79168 10.5 8.79168ZM13.3333 8.79168V12.3334H14.0416C14.2295 12.3334 14.4097 12.2587 14.5425 12.1259C14.6754 11.993 14.75 11.8129 14.75 11.625V9.50002C14.75 9.31216 14.6754 9.13199 14.5425 8.99915C14.4097 8.86631 14.2295 8.79168 14.0416 8.79168H13.3333Z" fill="black"/>
</svg>
