<svg width="27" height="35" viewBox="0 0 19 27" fill="none" xmlns="http://www.w3.org/2000/svg">
<path d="M19 9.71053C19 15.0735 11.8171 27 9.5 27C7.18293 27 0 15.0735 0 9.71053C0 4.34755 4.25329 0 9.5 0C14.7467 0 19 4.34755 19 9.71053Z" fill="#D7D7D7"/>
<path d="M9.57553 2.85327C8.16909 2.85327 6.79423 3.27033 5.62481 4.05171C4.45539 4.83309 3.54394 5.94369 3.00572 7.24308C2.4675 8.54246 2.32667 9.97227 2.60106 11.3517C2.87544 12.7311 3.55271 13.9982 4.54722 14.9927C5.54172 15.9872 6.8088 16.6645 8.18822 16.9389C9.56764 17.2132 10.9974 17.0724 12.2968 16.5342C13.5962 15.996 14.7068 15.0845 15.4882 13.9151C16.2696 12.7457 16.6866 11.3708 16.6866 9.96438C16.6866 8.0784 15.9374 6.26966 14.6038 4.93607C13.2703 3.60248 11.4615 2.85327 9.57553 2.85327V2.85327ZM13.1578 9.99994H13.8422C13.8328 11.1258 13.3793 12.2024 12.5803 12.9955C11.7813 13.7887 10.7014 14.2344 9.57553 14.2355H9.49997V13.5555H9.57553C10.5206 13.5544 11.4271 13.1802 12.0979 12.5144C12.7687 11.8487 13.1496 10.945 13.1578 9.99994V9.99994ZM4.18886 9.99994H3.47775V9.96438C3.4788 8.36093 4.11138 6.82241 5.23852 5.68196C6.36566 4.54151 7.89664 3.89092 9.49997 3.87105V4.58216C8.08561 4.60315 6.73616 5.17918 5.74261 6.18602C4.74907 7.19287 4.19104 8.54986 4.18886 9.96438V9.99994ZM5.98886 9.99994H5.30442V9.96438C5.30541 8.84535 5.74553 7.77141 6.53013 6.97351C7.31472 6.17562 8.38112 5.71751 9.49997 5.69772V6.38216C8.56266 6.40191 7.67033 6.78788 7.01408 7.45743C6.35782 8.12697 5.98982 9.02686 5.98886 9.96438V9.99994ZM7.90886 9.96438C7.90886 9.63475 8.00661 9.31251 8.18975 9.03843C8.37288 8.76435 8.63318 8.55073 8.93773 8.42458C9.24227 8.29844 9.57738 8.26543 9.90068 8.32974C10.224 8.39405 10.521 8.55278 10.754 8.78587C10.9871 9.01896 11.1459 9.31593 11.2102 9.63923C11.2745 9.96253 11.2415 10.2976 11.1153 10.6022C10.9892 10.9067 10.7756 11.167 10.5015 11.3502C10.2274 11.5333 9.90517 11.631 9.57553 11.631C9.1335 11.631 8.70958 11.4555 8.39702 11.1429C8.08446 10.8303 7.90886 10.4064 7.90886 9.96438V9.96438ZM9.57553 16.0577H9.49997V15.3333H9.57553C10.9938 15.331 12.3541 14.7699 13.3616 13.7716C14.3691 12.7733 14.9426 11.4182 14.9578 9.99994H15.6689C15.6571 11.6091 15.0103 13.1485 13.8691 14.283C12.7279 15.4176 11.1847 16.0554 9.57553 16.0577Z" fill="black"/>
</svg>
