<svg width="27" height="35" viewBox="0 0 19 27" fill="none" xmlns="http://www.w3.org/2000/svg">
<path d="M19 9.71053C19 15.0735 11.8171 27 9.5 27C7.18293 27 0 15.0735 0 9.71053C0 4.34755 4.25329 0 9.5 0C14.7467 0 19 4.34755 19 9.71053Z" fill="#D7D7D7"/>
<path d="M13.5625 4.875H5.75C5.0625 4.875 4.5 5.4375 4.5 6.125V9.69375C4.5 12.0875 6.34375 14.1812 8.7375 14.25C11.2125 14.325 13.25 12.3375 13.25 9.875V9.25H13.5625C14.7688 9.25 15.75 8.26875 15.75 7.0625C15.75 5.85625 14.7688 4.875 13.5625 4.875ZM12 6.125V8H5.75V6.125H12ZM13.5625 8H13.25V6.125H13.5625C14.0813 6.125 14.5 6.54375 14.5 7.0625C14.5 7.58125 14.0813 8 13.5625 8ZM4.5 14.875H14.5V16.125H4.5V14.875Z" fill="black"/>
</svg>
