<svg width="27" height="35" viewBox="0 0 19 27" fill="none" xmlns="http://www.w3.org/2000/svg">
<path d="M19 9.71053C19 15.0735 11.8171 27 9.5 27C7.18293 27 0 15.0735 0 9.71053C0 4.34755 4.25329 0 9.5 0C14.7467 0 19 4.34755 19 9.71053Z" fill="#D7D7D7"/>
<path d="M11.9792 2.41675C12.3446 2.41671 12.7055 2.49744 13.036 2.65317C13.3666 2.80889 13.6586 3.03575 13.8912 3.31753C14.1239 3.5993 14.2913 3.92901 14.3817 4.28306C14.472 4.63712 14.4829 5.00676 14.4137 5.36554L14.4031 5.41229C15.0193 5.61785 15.5581 6.00672 15.9473 6.52685C16.3365 7.04698 16.5575 7.67357 16.5809 8.32277C16.6042 8.97197 16.4287 9.61282 16.0779 10.1596C15.7271 10.7063 15.2176 11.1328 14.6177 11.3821L13.8485 15.9913C13.821 16.1566 13.7357 16.3069 13.6078 16.4154C13.4799 16.5238 13.3177 16.5833 13.1501 16.5834H5.84998C5.68231 16.5833 5.52011 16.5238 5.39222 16.4154C5.26434 16.3069 5.17906 16.1566 5.15156 15.9913L4.42269 11.6208C3.93247 11.593 3.467 11.3963 3.10542 11.0641C2.74383 10.732 2.50843 10.2848 2.43924 9.7987C2.37005 9.31259 2.47133 8.81752 2.72586 8.39765C2.9804 7.97777 3.37249 7.65899 3.83548 7.4955L3.83335 7.37508C3.83321 6.65786 4.01458 5.95227 4.36057 5.32403C4.70656 4.69578 5.20592 4.16531 5.81213 3.78203C6.41835 3.39874 7.1117 3.17511 7.82762 3.13195C8.54354 3.0888 9.25874 3.22752 9.9066 3.53521C10.1321 3.19137 10.4396 2.90908 10.8014 2.71382C11.1633 2.51855 11.568 2.41646 11.9792 2.41675ZM7.37502 11.6251H5.85919L6.44994 15.1667H7.37502V11.6251ZM10.2084 11.6251H8.79169V15.1667H10.2084V11.6251ZM13.1401 11.6251H11.625V15.1667H12.5494L13.1401 11.6251ZM8.08335 4.54175C6.5661 4.54175 5.32723 5.73458 5.25356 7.21004L5.25002 7.34958L5.25214 7.47C5.25715 7.74814 5.18016 8.02161 5.03076 8.25628C4.88137 8.49095 4.66619 8.67645 4.41206 8.78962L4.30581 8.83142C4.14853 8.88742 4.01605 8.99713 3.93172 9.14122C3.84739 9.28531 3.8166 9.45453 3.84479 9.61909C3.87298 9.78365 3.95833 9.93298 4.08581 10.0408C4.2133 10.1486 4.37473 10.208 4.54169 10.2084H13.3959C13.6577 10.2084 13.9162 10.1504 14.1529 10.0384C14.3896 9.92649 14.5985 9.76346 14.7646 9.56109C14.9307 9.35871 15.0499 9.12202 15.1136 8.86805C15.1772 8.61409 15.1837 8.34917 15.1327 8.09238C15.0817 7.83558 14.9743 7.5933 14.8184 7.38297C14.6625 7.17265 14.4618 6.99952 14.231 6.87604C14.0001 6.75257 13.7447 6.68182 13.4832 6.66891C13.2217 6.65599 12.9606 6.70122 12.7187 6.80133L12.5947 6.85871C12.2679 7.02713 11.8884 7.06188 11.5364 6.9556C11.1844 6.84933 10.8875 6.61036 10.7084 6.28921L10.6589 6.19217C10.4325 5.69947 10.0695 5.28207 9.61296 4.98953C9.15644 4.69698 8.62557 4.54157 8.08335 4.54175ZM11.9792 3.83342C11.7956 3.83338 11.6151 3.88093 11.4553 3.97142C11.2955 4.06192 11.1619 4.19228 11.0676 4.34979C11.4333 4.70989 11.7309 5.13322 11.9459 5.59929C12.2665 5.43456 12.6129 5.32603 12.9701 5.27842C13.0322 5.11747 13.0542 4.94383 13.0342 4.77249C13.0142 4.60115 12.9527 4.43727 12.8551 4.295C12.7576 4.15273 12.6268 4.03636 12.4742 3.95594C12.3216 3.87552 12.1517 3.83346 11.9792 3.83342Z" fill="black"/>
</svg>
