<svg width="27" height="35" viewBox="0 0 19 27" fill="none" xmlns="http://www.w3.org/2000/svg">
<path d="M19 9.71053C19 15.0735 11.8171 27 9.5 27C7.18293 27 0 15.0735 0 9.71053C0 4.34755 4.25329 0 9.5 0C14.7467 0 19 4.34755 19 9.71053Z" fill="#D7D7D7"/>
<path d="M8.71665 8.25008H7.54999V4.16675H6.38332V8.25008H5.21665V4.16675H4.04999V8.25008C4.04999 9.48675 5.01832 10.4901 6.23749 10.5659V15.8334H7.69582V10.5659C8.91499 10.4901 9.88332 9.48675 9.88332 8.25008V4.16675H8.71665V8.25008ZM11.6333 6.50008V11.1667H13.0917V15.8334H14.55V4.16675C12.94 4.16675 11.6333 5.47341 11.6333 6.50008Z" fill="black"/>
</svg>
