<svg width="27" height="35" viewBox="0 0 19 27" fill="none" xmlns="http://www.w3.org/2000/svg">
<path d="M19 9.71053C19 15.0735 11.8171 27 9.5 27C7.18293 27 0 15.0735 0 9.71053C0 4.34755 4.25329 0 9.5 0C14.7467 0 19 4.34755 19 9.71053Z" fill="#D7D7D7"/>
<path d="M6.66669 3.41675H12.3334C12.8969 3.41675 13.4374 3.64063 13.836 4.03915C14.2345 4.43766 14.4584 4.97816 14.4584 5.54175V15.4584C14.4584 16.022 14.2345 16.5625 13.836 16.961C13.4374 17.3595 12.8969 17.5834 12.3334 17.5834H6.66669C6.1031 17.5834 5.5626 17.3595 5.16409 16.961C4.76557 16.5625 4.54169 16.022 4.54169 15.4584V5.54175C4.54169 4.97816 4.76557 4.43766 5.16409 4.03915C5.5626 3.64063 6.1031 3.41675 6.66669 3.41675ZM9.50002 15.4584C10.2515 15.4584 10.9721 15.1599 11.5035 14.6286C12.0348 14.0972 12.3334 13.3765 12.3334 12.6251C12.3334 11.8736 12.0348 11.153 11.5035 10.6216C10.9721 10.0903 10.2515 9.79175 9.50002 9.79175C8.74857 9.79175 8.02791 10.0903 7.49655 10.6216C6.9652 11.153 6.66669 11.8736 6.66669 12.6251C6.66669 13.3765 6.9652 14.0972 7.49655 14.6286C8.02791 15.1599 8.74857 15.4584 9.50002 15.4584ZM9.50002 8.37508C9.68788 8.37508 9.86805 8.30045 10.0009 8.16762C10.1337 8.03478 10.2084 7.85461 10.2084 7.66675C10.2084 7.47889 10.1337 7.29872 10.0009 7.16588C9.86805 7.03304 9.68788 6.95842 9.50002 6.95842C9.31216 6.95842 9.13199 7.03304 8.99915 7.16588C8.86632 7.29872 8.79169 7.47889 8.79169 7.66675C8.79169 7.85461 8.86632 8.03478 8.99915 8.16762C9.13199 8.30045 9.31216 8.37508 9.50002 8.37508ZM9.50002 14.0417C9.1243 14.0417 8.76396 13.8925 8.49829 13.6268C8.23261 13.3611 8.08335 13.0008 8.08335 12.6251C8.08335 12.2494 8.23261 11.889 8.49829 11.6233C8.76396 11.3577 9.1243 11.2084 9.50002 11.2084C9.87575 11.2084 10.2361 11.3577 10.5018 11.6233C10.7674 11.889 10.9167 12.2494 10.9167 12.6251C10.9167 13.0008 10.7674 13.3611 10.5018 13.6268C10.2361 13.8925 9.87575 14.0417 9.50002 14.0417Z" fill="black"/>
</svg>
